HIERARCHY
ROOT Hips
{
	OFFSET -3.958830 18.904000 13.208200
	CHANNELS 6 Xposition Yposition Zposition Zrotation Yrotation Xrotation 
	JOINT LHipJoint
	{
		OFFSET 0.000000 0.000000 0.000000
		CHANNELS 3 Zrotation Yrotation Xrotation
		JOINT LeftUpLeg
		{
			OFFSET 1.800000 -1.400000 0.085000
			CHANNELS 3 Zrotation Yrotation Xrotation
			JOINT LeftLeg
			{
				OFFSET 2.215000 -6.000000 0.000000
				CHANNELS 3 Zrotation Yrotation Xrotation
				JOINT LeftFoot
				{
					OFFSET 2.500000 -6.900000 0.000000
					CHANNELS 3 Zrotation Yrotation Xrotation
					JOINT LeftToeBase
					{
						OFFSET 0.200000 -0.500000 1.950000
						CHANNELS 3 Zrotation Yrotation Xrotation
						End Site
						{
							OFFSET 0.000000 0.000000 0.000000
						}
					}
				}
			}
		}
	}
	JOINT RHipJoint
	{
		OFFSET 0.000000 0.000000 0.000000
		CHANNELS 3 Zrotation Yrotation Xrotation
		JOINT RightUpLeg
		{
			OFFSET -1.800000 -1.400000 0.085000
			CHANNELS 3 Zrotation Yrotation Xrotation
			JOINT RightLeg
			{
				OFFSET -2.215000 -6.000000 0.000000
				CHANNELS 3 Zrotation Yrotation Xrotation
				JOINT RightFoot
				{
					OFFSET -2.500000 -6.900000 0.000000
					CHANNELS 3 Zrotation Yrotation Xrotation
					JOINT RightToeBase
					{
						OFFSET -0.200000 -0.500000 1.950000
						CHANNELS 3 Zrotation Yrotation Xrotation
						End Site
						{
							OFFSET 0.000000 0.000000 0.000000
						}
					}
				}
			}
		}
	}
	JOINT LowerBack
	{
		OFFSET 0.000000 0.000000 0.000000
		CHANNELS 3 Zrotation Yrotation Xrotation
		JOINT Spine
		{
			OFFSET -0.087000 1.940000 -0.288900
			CHANNELS 3 Zrotation Yrotation Xrotation
			JOINT Spine1
			{
				OFFSET 0.000000 1.950000 0.060000
				CHANNELS 3 Zrotation Yrotation Xrotation
				JOINT Neck
				{
					OFFSET 0.000000 0.000000 0.000000
					CHANNELS 3 Zrotation Yrotation Xrotation
					JOINT Neck1
					{
						OFFSET 0.000000 1.600000 0.340000
						CHANNELS 3 Zrotation Yrotation Xrotation
						JOINT Head
						{
							OFFSET 0.000000 1.667000 -0.240000
							CHANNELS 3 Zrotation Yrotation Xrotation
							End Site
							{
								OFFSET 0.000000 0.000000 0.000000
							}
						}
					}
				}
				JOINT LeftShoulder
				{
					OFFSET 0.000000 0.000000 0.000000
					CHANNELS 3 Zrotation Yrotation Xrotation
					JOINT LeftArm
					{
						OFFSET 2.700000 1.550000 -0.730000
						CHANNELS 3 Zrotation Yrotation Xrotation
						JOINT LeftForeArm
						{
							OFFSET 5.450000 0.000000 0.000000
							CHANNELS 3 Zrotation Yrotation Xrotation
							JOINT LeftHand
							{
								OFFSET 3.450000 0.000000 0.000000
								CHANNELS 3 Zrotation Yrotation Xrotation
								JOINT LeftHandIndex1
								{
									OFFSET 0.750000 0.000000 0.000000
									CHANNELS 3 Zrotation Yrotation Xrotation
									End Site
									{
										OFFSET 0.000000 0.000000 0.000000
									}
								}
							}
						}
					}
				}
				JOINT RightShoulder
				{
					OFFSET 0.000000 0.000000 0.000000
					CHANNELS 3 Zrotation Yrotation Xrotation
					JOINT RightArm
					{
						OFFSET -2.700000 1.550000 -0.730000
						CHANNELS 3 Zrotation Yrotation Xrotation
						JOINT RightForeArm
						{
							OFFSET -5.450000 0.000000 0.000000
							CHANNELS 3 Zrotation Yrotation Xrotation
							JOINT RightHand
							{
								OFFSET -3.450000 0.000000 0.000000
								CHANNELS 3 Zrotation Yrotation Xrotation
								JOINT RightHandIndex1
								{
									OFFSET -0.750000 0.000000 0.000000
									CHANNELS 3 Zrotation Yrotation Xrotation
									End Site
									{
										OFFSET 0.000000 0.000000 0.000000
									}
								}
							}
						}
					}
				}
			}
		}
	}
}
MOTION
Frames: 8
Frame Time: 0.016667
0.644760 16.804150 -0.902860 -4.982334 -7.904787 5.623777 -15.095835 13.185646 2.991885 13.586207 -1.484538 -23.076691 -8.761995 10.549224 26.992889 -0.516746 6.926853 2.402955 -0.220900 -0.739760 0.074830 18.340368 -10.714950 2.517521 -8.797549 1.429662 -12.442512 10.993538 -6.178830 11.858637 0.243985 -4.213928 3.233142 -0.067890 1.001930 0.204680 -3.713096 -1.885082 -6.920239 8.736402 3.321118 5.157575 0.479532 3.067428 5.453683 -1.377520 -3.719592 -7.637644 -7.051884 16.178048 24.174999 -7.970770 21.672300 8.404030 3.686572 4.169290 2.524990 -12.847137 -5.085717 1.920918 33.530789 -73.848899 -22.243081 -4.480276 3.093203 0.126090 0.923400 -0.752970 0.056790 -0.628067 -1.870780 2.143995 36.941527 5.519528 -7.647091 -46.243322 52.217683 -17.842617 1.302022 -1.532195 -0.723320 0.285940 0.326670 -0.397110 
0.645390 16.809090 -0.903710 -4.998762 -8.091680 5.428495 -15.114086 13.212618 2.971651 13.621635 -1.410825 -22.743335 -8.767887 10.542281 26.820729 -0.521373 6.914453 2.402273 -0.224020 -0.748860 0.095250 18.320086 -10.719847 2.511538 -8.758373 1.390033 -12.319628 10.870329 -6.179649 11.933064 0.240812 -4.214025 3.226380 -0.075630 0.984530 0.212410 -3.651709 -1.917438 -6.910678 8.022848 3.500391 5.004127 1.656450 3.057078 6.125113 -1.539189 -3.369522 -7.747209 -6.464092 15.886720 24.736884 -8.627440 22.027830 8.151400 4.248796 3.587477 2.781265 -10.936807 -4.969063 2.725651 22.904798 -75.000804 -15.564397 -4.524361 3.294115 0.132840 0.923540 -0.743300 0.041710 -0.788580 -1.490706 2.182993 36.262606 5.875499 -7.604847 -45.540395 51.406760 -17.355655 1.320060 -1.542106 -0.720950 0.272810 0.326850 -0.410460 
0.645800 16.815570 -0.905060 -5.007011 -8.343787 5.210839 -15.132993 13.246615 2.949686 13.658518 -1.323414 -22.346340 -8.784700 10.531980 26.612315 -0.526068 6.895645 2.402486 -0.223620 -0.754140 0.115330 18.297936 -10.723213 2.506660 -8.728942 1.351559 -12.192149 10.749738 -6.176787 11.997864 0.235047 -4.208296 3.221718 -0.082680 0.963510 0.217540 -3.585442 -1.961476 -6.902320 7.296912 3.694736 4.877659 2.861934 3.063318 6.772745 -1.702662 -3.096404 -7.882194 -6.036094 15.598149 25.400463 -9.212650 22.289800 7.851240 4.867614 3.080887 3.081960 -9.615069 -5.110260 3.515474 11.964185 -75.674668 -8.132880 -4.545639 3.433695 0.144400 0.917090 -0.730330 0.028370 -1.004051 -1.122957 2.216772 35.650334 6.290458 -7.549539 -44.815491 50.569487 -16.843573 1.339531 -1.548385 -0.717610 0.261930 0.326080 -0.422920 
0.646670 16.823330 -0.905490 -4.978980 -8.599316 4.976407 -15.150683 13.289332 2.922718 13.619560 -1.242709 -21.887359 -8.755511 10.480215 26.357828 -0.531951 6.856221 2.411695 -0.220930 -0.755500 0.133690 18.275241 -10.727828 2.503811 -8.734140 1.304564 -12.032377 10.629698 -6.166694 12.014469 0.228225 -4.198945 3.221556 -0.087980 0.941850 0.218900 -3.519398 -2.016212 -6.892470 6.594818 3.863806 4.770072 4.000896 3.060608 7.353422 -1.868855 -2.907031 -8.018107 -5.781355 15.306979 26.148861 -9.724660 22.448280 7.545670 5.575433 2.698588 3.387062 -8.971244 -5.508627 4.230206 1.429749 -75.876357 -0.657579 -4.549165 3.519806 0.157770 0.907280 -0.715970 0.017520 -1.312234 -0.827430 2.229461 35.187098 6.795104 -7.453679 -43.956632 49.715063 -16.254913 1.359967 -1.552404 -0.714230 0.255650 0.323670 -0.433680 
0.647450 16.831680 -0.905760 -4.916908 -8.818085 4.737530 -15.168439 13.336926 2.897079 13.523149 -1.178664 -21.443567 -8.683246 10.407929 26.131522 -0.539033 6.809630 2.423937 -0.215210 -0.751770 0.149710 18.251270 -10.731228 2.501905 -8.787481 1.255232 -11.864028 10.543110 -6.163335 12.024533 0.220309 -4.191260 3.221669 -0.090440 0.921600 0.217630 -3.451339 -2.082390 -6.885589 5.900471 4.024249 4.716425 5.081470 3.075963 7.816290 -2.046789 -2.768674 -8.137647 -5.636159 15.005864 26.909035 -10.084480 22.455070 7.238010 6.378986 2.442316 3.655028 -8.974180 -6.228026 4.863638 -7.996694 -75.633258 6.129726 -4.537963 3.571432 0.171960 0.894860 -0.701410 0.009340 -1.697257 -0.632717 2.227248 34.888623 7.283720 -7.339882 -43.144483 48.917615 -15.692113 1.379269 -1.554203 -0.710730 0.253610 0.320420 -0.441540 
0.648760 16.839240 -0.905110 -4.858307 -8.988312 4.531260 -15.181981 13.381158 2.871489 13.400050 -1.129980 -21.035521 -8.575878 10.309244 25.892210 -0.549774 6.758024 2.441270 -0.211350 -0.749700 0.157470 18.231826 -10.736070 2.500290 -8.850666 1.211182 -11.717478 10.474624 -6.165951 12.045398 0.214334 -4.188771 3.222180 -0.091650 0.910320 0.215290 -3.396988 -2.141304 -6.875750 5.342705 4.157459 4.640527 6.002649 3.093520 8.200129 -2.237381 -2.680737 -8.232076 -5.590796 14.716747 27.618367 -10.269380 22.325380 7.072990 7.284944 2.296911 3.870954 -9.569059 -7.223974 5.405749 -15.381878 -75.000059 11.376978 -4.520378 3.603367 0.183270 0.885880 -0.692940 0.005300 -2.175051 -0.546588 2.209655 34.824199 7.792562 -7.193943 -42.406625 48.145879 -15.170755 1.394382 -1.557748 -0.709910 0.256440 0.320680 -0.446270 
0.650830 16.845620 -0.903750 -4.812441 -9.133847 4.374110 -15.189795 13.414933 2.847650 13.282429 -1.092252 -20.665207 -8.491527 10.204708 25.621985 -0.559345 6.705115 2.459367 -0.204860 -0.743700 0.162050 18.219486 -10.742533 2.498367 -8.907873 1.176030 -11.611265 10.408032 -6.165096 12.066933 0.209565 -4.190353 3.219281 -0.089520 0.903030 0.217140 -3.362673 -2.181128 -6.861307 4.955700 4.270202 4.509967 6.718065 3.118493 8.526245 -2.434117 -2.621738 -8.281375 -5.599041 14.443363 28.254839 -10.308410 22.098170 7.028160 8.267409 2.258919 4.007541 -10.677058 -8.544562 5.901249 -20.923035 -73.933445 15.126891 -4.497742 3.633474 0.188180 0.880620 -0.687130 0.004100 -2.739523 -0.583455 2.167246 35.018898 8.344371 -6.994638 -41.692333 47.388253 -14.674845 1.409085 -1.569874 -0.705790 0.256020 0.320240 -0.447180 
0.652330 16.851220 -0.902730 -4.769459 -9.266473 4.231713 -15.193647 13.443845 2.824649 13.157893 -1.063534 -20.336124 -8.382003 10.097646 25.397788 -0.569794 6.653750 2.475667 -0.193010 -0.731030 0.166650 18.211616 -10.750258 2.497139 -8.970974 1.148064 -11.527503 10.370571 -6.169977 12.109152 0.205036 -4.196131 3.214330 -0.081920 0.895590 0.219040 -3.341420 -2.210991 -6.845450 4.674708 4.378866 4.372639 7.290823 3.163796 8.805485 -2.651288 -2.595784 -8.297570 -5.675121 14.203375 28.862280 -10.177410 21.767300 7.015180 9.327545 2.314255 4.085538 -12.219320 -10.082117 6.364657 -24.602829 -72.553126 17.355766 -4.466606 3.662181 0.190950 0.875290 -0.682320 0.004750 -3.358801 -0.716302 2.103270 35.418293 8.907653 -6.765631 -41.077146 46.642559 -14.234029 1.422824 -1.586353 -0.700210 0.254760 0.317290 -0.446740 
